<svg xmlns="http://www.w3.org/2000/svg" width="960" height="264" viewBox="0 0 960 264" role="img" aria-labelledby="title desc">
  <title id="title">DART — Discover Art</title>
  <desc id="desc">Dark banner with a blue DART mark and abstract art cards.</desc>
  <defs>
    <linearGradient id="background" x1="0" y1="0" x2="960" y2="264" gradientUnits="userSpaceOnUse"><stop stop-color="#101a2a"/><stop offset="1" stop-color="#0d1117"/></linearGradient>
    <linearGradient id="accent" x1="84" y1="74" x2="194" y2="194" gradientUnits="userSpaceOnUse"><stop stop-color="#71d8ff"/><stop offset="1" stop-color="#3788ff"/></linearGradient>
    <linearGradient id="art" x1="0" y1="0" x2="140" y2="150" gradientUnits="userSpaceOnUse"><stop stop-color="#77d9d0"/><stop offset="1" stop-color="#4570ca"/></linearGradient>
    <linearGradient id="frame" x1="0" y1="0" x2="160" y2="190" gradientUnits="userSpaceOnUse"><stop stop-color="#23364f"/><stop offset="1" stop-color="#182130"/></linearGradient>
  </defs>
  <rect width="960" height="264" rx="24" fill="url(#background)"/>
  <rect x=".5" y=".5" width="959" height="263" rx="23.5" fill="none" stroke="#2b3a4e"/>
  <circle cx="875" cy="15" r="185" fill="#2d9cff" opacity=".035"/>
  <circle cx="780" cy="255" r="180" fill="#71d8cf" opacity=".025"/>
  <g transform="translate(74 70)">
    <rect width="124" height="124" rx="32" fill="#2d9cff" opacity=".08" stroke="#305070"/>
    <path d="M34 27h23c36 0 51 17 51 35S93 97 57 97H34V27zm21 19v32h4c20 0 28-7 28-16s-8-16-28-16h-4z" fill="url(#accent)"/>
    <path d="m20 62 10-10 10 10-10 10z" fill="#7bdcff"/>
  </g>
  <text x="232" y="130" fill="#f0f6fc" font-family="Segoe UI,Arial,sans-serif" font-size="70" font-weight="700" letter-spacing="-3">DART</text>
  <text x="236" y="172" fill="#9bb2cc" font-family="Segoe UI,Arial,sans-serif" font-size="25" letter-spacing=".5">Discover Art</text>
  <g transform="translate(692 38) rotate(-9 70 94)">
    <rect width="140" height="184" rx="16" fill="url(#frame)" stroke="#37506c"/>
    <rect x="12" y="12" width="116" height="130" rx="9" fill="#193248"/>
    <circle cx="74" cy="57" r="25" fill="#5085b7" opacity=".7"/>
    <path d="m12 142 42-60 32 39 24-22 18 43z" fill="#598da9"/>
    <rect x="16" y="157" width="73" height="5" rx="2.5" fill="#7c94b2" opacity=".5"/>
    <rect x="16" y="168" width="42" height="4" rx="2" fill="#526780"/>
  </g>
  <g transform="translate(788 58) rotate(9 66 86)">
    <rect width="132" height="174" rx="16" fill="#172334" stroke="#3c546e"/>
    <rect x="11" y="11" width="110" height="123" rx="8" fill="url(#art)"/>
    <path d="m11 97 31-38 31 39 25-31 23 37v30H11z" fill="#142a52" opacity=".38"/>
    <circle cx="91" cy="41" r="14" fill="#c0fff2" opacity=".6"/>
    <rect x="15" y="147" width="69" height="5" rx="2.5" fill="#a4bad4" opacity=".65"/>
    <path d="M102 149c-5-6-11 0-7 5l7 6 7-6c4-5-2-11-7-5z" fill="#64c7e8"/>
    <rect x="15" y="158" width="39" height="4" rx="2" fill="#536c89"/>
  </g>
</svg>
